Coordinates
version=1
nRows=16
nColumns=40
inDegrees=yes

Units are S.I. units (second, meters, Newtons, ...)
Angles are in degrees.

endheader
time	pelvis_tilt	pelvis_list	pelvis_rotation	pelvis_tx	pelvis_ty	pelvis_tz	hip_flexion_r	hip_adduction_r	hip_rotation_r	knee_angle_r	knee_angle_r_beta	ankle_angle_r	subtalar_angle_r	mtp_angle_r	hip_flexion_l	hip_adduction_l	hip_rotation_l	knee_angle_l	knee_angle_l_beta	ankle_angle_l	subtalar_angle_l	mtp_angle_l	lumbar_extension	lumbar_bending	lumbar_rotation	arm_flex_r	arm_add_r	arm_rot_r	elbow_flex_r	pro_sup_r	wrist_flex_r	wrist_dev_r	arm_flex_l	arm_add_l	arm_rot_l	elbow_flex_l	pro_sup_l	wrist_flex_l	wrist_dev_l
     13.88214286	     -5.31300408	     -4.44663420	     15.30275790	      0.96622594	      0.91885343	      0.51637485	      9.28623274	      3.63083125	    -17.26544067	     19.62430073	     19.62430073	     17.35153947	    -11.49145305	     -2.05690973	     29.36715083	     -5.08650858	      2.08826093	     16.41546554	     16.41546554	      1.80013024	     -2.79240400	      2.25660882	     -8.83270184	      2.83819861	      2.69107193	     61.89861731	    -20.70465047	     -6.57351276	     76.54884363	     44.88160968	      0.00000000	      0.00000000	    -24.05969555	     -6.92536701	     26.43171648	     32.18328135	     42.55454913	      0.00000000	      0.00000000
     13.90428571	     -5.33172813	     -4.46648543	     15.47868895	      0.96743063	      0.91852373	      0.51312910	      8.80961159	      3.54597590	    -17.37657111	     19.54446480	     19.54446480	     17.80563017	    -11.30384491	     -1.46545418	     28.64387403	     -4.94762588	      1.75374280	     15.64813285	     15.64813285	      0.01172325	     -2.88060344	     -2.05441728	     -8.86399911	      2.74019402	      2.83981822	     62.21308077	    -20.82825897	     -6.14419314	     77.91540631	     44.86846571	      0.00000000	      0.00000000	    -23.37761346	     -6.89325121	     26.59624959	     30.93142681	     42.75946471	      0.00000000	      0.00000000
     13.92642857	     -5.53911848	     -4.46136027	     15.64363095	      0.96863812	      0.91805512	      0.50960570	      8.51418891	      3.38038561	    -17.40280867	     19.42922742	     19.42922742	     17.99156155	    -11.38007871	     -1.46091129	     28.49092756	     -4.68138152	      1.75272149	     15.79965401	     15.79965401	      0.04933610	     -2.94493876	     -2.15606833	     -8.60635029	      2.56249107	      2.86074478	     62.44745130	    -20.68107359	     -6.08613113	     78.03453297	     44.86462955	      0.00000000	      0.00000000	    -23.13027390	     -7.16023376	     26.54619855	     30.91441730	     42.77375883	      0.00000000	      0.00000000
     13.94857143	     -5.56732325	     -4.38934442	     15.74983075	      0.96999299	      0.91794283	      0.50585446	      7.91635268	      3.20381093	    -17.40329097	     19.15284514	     19.15284514	     18.14900320	    -11.27577965	     -1.31562369	     28.31576852	     -4.39335280	      1.94276276	     16.35296218	     16.35296218	      0.06245525	     -3.44151206	     -2.59239782	     -8.63835747	      2.36021339	      2.82861550	     62.71676321	    -20.42030410	     -5.91865847	     78.30308242	     44.85671215	      0.00000000	      0.00000000	    -22.72691092	     -7.45302841	     26.50940009	     30.72262864	     42.80868023	      0.00000000	      0.00000000
     13.97071429	     -5.69351936	     -4.39688292	     15.84380236	      0.97138974	      0.91780664	      0.50187490	      7.41721158	      3.06138230	    -17.50648441	     18.84526012	     18.84526012	     18.32008660	    -11.07472443	     -1.05043407	     28.24407810	     -4.11411769	      2.29454070	     16.85961038	     16.85961038	     -0.01131861	     -4.23270660	     -3.14561404	     -8.48825080	      2.27989296	      2.88439697	     62.73980522	    -20.36038269	     -5.70848140	     78.39240768	     44.85736759	      0.00000000	      0.00000000	    -22.17548662	     -7.73045047	     26.45808337	     30.33517016	     42.87009388	      0.00000000	      0.00000000
     13.99285714	     -5.77959364	     -4.30452355	     15.84056891	      0.97289491	      0.91787228	      0.49770328	      6.85921262	      2.81069779	    -17.49157776	     18.57381858	     18.57381858	     18.42789100	    -10.90572827	     -0.88446542	     28.15347032	     -3.78211048	      2.55046263	     17.52215462	     17.52215462	      0.18542802	     -4.89970862	     -3.43875074	     -8.41919641	      2.12270050	      3.00262675	     62.66769324	    -20.29298962	     -5.57993719	     78.30752558	     44.86116935	      0.00000000	      0.00000000	    -21.70191925	     -8.04875959	     26.38391831	     30.14399126	     42.91095806	      0.00000000	      0.00000000
     14.01500000	     -5.88242295	     -4.19606171	     15.78150194	      0.97441899	      0.91804735	      0.49346623	      6.30268536	      2.53528026	    -17.44502160	     18.27528258	     18.27528258	     18.45065604	    -10.69584111	     -0.74491284	     28.09114006	     -3.44324160	      2.77349104	     18.22113249	     18.22113249	      0.49867175	     -5.54438452	     -3.62854706	     -8.34055560	      1.92691527	      3.15294828	     62.52169160	    -20.16022589	     -5.45170720	     78.14736887	     44.86478957	      0.00000000	      0.00000000	    -21.20156109	     -8.42593775	     26.29570012	     30.03307293	     42.94377957	      0.00000000	      0.00000000
     14.03714286	     -5.93002902	     -4.25601365	     15.70964463	      0.97596609	      0.91827682	      0.48902741	      5.64597498	      2.43285430	    -17.60192101	     17.81092043	     17.81092043	     18.44083543	    -10.16045389	     -0.53184240	     28.10344795	     -3.20223713	      3.36235872	     19.08043609	     19.08043609	      0.98504521	     -6.70879417	     -3.55501877	     -8.25813754	      2.00046661	      3.42247377	     62.45431018	    -20.29161170	     -5.36302989	     77.66196535	     44.88516954	      0.00000000	      0.00000000	    -20.64856557	     -8.66500201	     26.21200608	     29.76132202	     42.99647437	      0.00000000	      0.00000000
     14.05928571	     -6.02440289	     -4.16430006	     15.53479985	      0.97746766	      0.91865786	      0.48457995	      5.08789273	      2.11578893	    -17.65695890	     17.51700376	     17.51700376	     18.40696327	     -9.62164062	     -0.38099494	     28.00785027	     -2.85162660	      3.70921503	     19.74550278	     19.74550278	      1.49230201	     -7.59826337	     -3.26506129	     -8.19307527	      1.91397171	      3.65882386	     62.28831643	    -20.22326200	     -5.23694038	     77.05328787	     44.90859709	      0.00000000	      0.00000000	    -20.07600846	     -8.96958057	     26.11426882	     29.50160216	     43.05486526	      0.00000000	      0.00000000
     14.08142857	     -6.09370025	     -4.09023301	     15.29891908	      0.97901546	      0.91906114	      0.48015984	      4.55444617	      1.81328891	    -17.65380611	     17.30016767	     17.30016767	     18.32052706	     -9.16431907	     -0.30113632	     27.88035006	     -2.57276901	      3.85920269	     20.40066073	     20.40066073	      2.09340237	     -8.29999096	     -3.09159141	     -8.13547998	      1.85247178	      3.85598329	     62.04872443	    -20.12143656	     -5.17950677	     76.45524340	     44.93092614	      0.00000000	      0.00000000	    -19.65435243	     -9.24151944	     26.02540982	     29.37346791	     43.09786771	      0.00000000	      0.00000000
     14.10357143	     -6.23091430	     -4.02045610	     15.00399188	      0.98042729	      0.91945649	      0.47582734	      4.19050656	      1.48340698	    -17.51941639	     17.22382165	     17.22382165	     18.15316495	     -8.91569700	     -0.24259421	     27.69214954	     -2.33301940	      3.81896437	     20.78473925	     20.78473925	      2.59187271	     -8.69823869	     -3.16777485	     -8.03440430	      1.82025265	      4.02607315	     61.72421566	    -19.84630055	     -5.06957976	     76.15705547	     44.93689493	      0.00000000	      0.00000000	    -19.18895229	     -9.55562810	     25.94370113	     29.39558313	     43.12155373	      0.00000000	      0.00000000
     14.12571429	     -6.29353709	     -3.94939391	     14.71276700	      0.98182479	      0.92000127	      0.47130427	      3.69602858	      1.05159192	    -17.96314871	     17.10365400	     17.10365400	     18.00727602	     -7.67795226	     -0.55577231	     27.54285824	     -2.01444732	      4.05934370	     21.45543162	     21.45543162	      3.79190853	     -9.45013401	     -1.23118701	     -7.93990066	      1.79328323	      3.97796086	     61.93022439	    -19.34158519	     -5.30007410	     73.57953768	     45.05320969	      0.00000000	      0.00000000	    -18.77225104	     -9.67606140	     25.77328274	     28.96467710	     43.26391398	      0.00000000	      0.00000000
     14.14785714	     -6.39420610	     -3.94040814	     14.34493471	      0.98319310	      0.92045339	      0.46707286	      3.37345151	      0.77281559	    -17.76401789	     17.10772398	     17.10772398	     17.76103580	     -7.45929445	     -0.50454285	     27.29207128	     -1.88374427	      3.90430875	     21.76240967	     21.76240967	      4.29015312	     -9.78145833	     -1.36206466	     -7.87876783	      1.85008335	      4.09262076	     61.41732917	    -19.11941896	     -5.22217095	     73.25823482	     45.05992426	      0.00000000	      0.00000000	    -18.36941719	     -9.94915487	     25.68703643	     29.03402569	     43.28698338	      0.00000000	      0.00000000
     14.17000000	     -6.46480971	     -3.92358535	     13.97067185	      0.98448040	      0.92097552	      0.46273924	      2.95754558	      0.41507003	    -17.98972165	     17.01266478	     17.01266478	     17.40612050	     -6.54010390	     -1.12083625	     27.07757763	     -1.72480498	      3.77535008	     22.23890227	     22.23890227	      5.32275059	    -10.02056789	     -0.04698623	     -7.76623594	      1.90082562	      4.03542263	     61.43528083	    -18.52743853	     -5.77143216	     70.51103573	     45.19143726	      0.00000000	      0.00000000	    -18.05834724	    -10.14609319	     25.23886686	     29.08888253	     43.48604452	      0.00000000	      0.00000000
     14.19214286	     -6.52327585	     -3.91706914	     13.54912575	      0.98575444	      0.92150627	      0.45854725	      2.63488333	      0.12044518	    -17.78630355	     17.05953798	     17.05953798	     17.13513475	     -6.25454301	     -1.10099144	     26.73587214	     -1.62595007	      3.52874757	     22.45590341	     22.45590341	      5.74691105	    -10.34613026	     -0.13696263	     -7.73112263	      1.97395489	      4.11799286	     60.61653407	    -18.40807412	     -5.73880356	     69.97899834	     45.20545363	      0.00000000	      0.00000000	    -17.62855973	    -10.42733624	     25.12895836	     29.17596663	     43.51428659	      0.00000000	      0.00000000
     14.21428571	     -6.59051700	     -3.92547427	     13.10602759	      0.98689921	      0.92205002	      0.45435052	      2.32009661	     -0.17586898	    -17.61244389	     17.07582810	     17.07582810	     16.86425816	     -5.82001089	     -1.12316914	     26.38213800	     -1.53643373	      3.27779678	     22.61519378	     22.61519378	      6.15167940	    -10.67088243	     -0.16712030	     -7.69706940	      2.10070412	      4.25831485	     59.65338908	    -18.36240850	     -5.77910037	     69.15184942	     45.23135068	      0.00000000	      0.00000000	    -17.10463573	    -10.72447122	     24.99821694	     29.28811525	     43.54681735	      0.00000000	      0.00000000
